<svg id="Layer_1" enable-background="new 0 0 53 53" height="512" viewBox="0 0 53 53" width="512" xmlns="http://www.w3.org/2000/svg"><g id="_x38_2"><path d="m41.9396324 14.7075987v28.5884094c0 1.8505516-1.4942131 3.3444252-3.3444252 3.3444252h-32.7420597c-1.8502121 0-3.3444257-1.4938736-3.3444257-3.3444252v-28.5884094c0-1.8506203 1.4942136-3.3444262 3.3444257-3.3444262h32.7420578c1.850214 0 3.3444271 1.4938059 3.3444271 3.3444262z" fill="#e4e3ff"/><path d="m24.5639038 32.377861v2.3349838c0 .6519661-.5336113 1.1852875-1.1852894 1.1852875h-2.3468475c-.652256 0-1.1852894-.5333214-1.1852894-1.1852875v-2.3349838c0-.6518955.5330334-1.1852894 1.1852894-1.1852894h2.3468475c.6516781 0 1.1852894.5333939 1.1852894 1.1852894z" fill="#d0d0f7"/><path d="m41.9437103 14.7058058v28.5920334c0 1.8432465-1.4942436 3.3374939-3.3374901 3.3374939h-32.7508139c-1.2894845 0-2.4124529-.7278099-2.973937-1.7986794.4574115.2391129.9772668.374279 1.5387511.374279h32.7407227c1.8488197 0 3.3475838-1.498764 3.3475838-3.34758v-17.852126c0-1.1484337-.9309883-2.079422-2.079422-2.079422h-35.9217893v-1.4763699h38.0012093v-7.1740274c0-.551013-.1350403-1.0708685-.3741531-1.5283432 1.0813379.5406065 1.8093385 1.6635112 1.8093385 2.9527416z" fill="#d0d0f7"/><path d="m41.9396515 20.460638v-5.7530556c0-1.8506508-1.4940758-3.3444099-3.3445396-3.3444099h-32.7417365c-1.850461 0-3.3445368 1.4937592-3.3445368 3.3444099v5.7530556z" fill="#f9b938"/><g><g><path d="m12.2278709 15.9065266c0 .7904549-.6410227 1.4314137-1.4317389 1.4314137-.7792416 0-1.4202642-.6409588-1.4202642-1.4314137 0-.7904558.6410227-1.4206553 1.4202642-1.4206553.7907163 0 1.4317389.6301994 1.4317389 1.4206553z" fill="#ecb021"/><path d="m12.002511 15.1425295c-.218298-.1351671-.4782257-.2079544-.7589684-.2079544-.7691212 0-1.4138632.6342077-1.4138632 1.4243975 0 .2807426.0832577.5510139.2284517.7693768-.4157829-.2495213-.6858635-.7069969-.6858635-1.2268515 0-.7901897.6442347-1.413991 1.424017-1.413991.5097018 0 .9569598.2599277 1.2062264.6550226z" fill="#e5a320"/><g><path d="m5.7652645 11.3956633c0-2.7769604 2.2591362-5.0360966 5.0360966-5.0360966s5.0360975 2.2591362 5.0360975 5.0360966-2.2591362 5.0360975-5.0360975 5.0360975c-.2873411 0-.5198545-.2325134-.5198545-.5198555s.2325134-.5198555.5198545-.5198555c2.2032928 0 3.9963875-1.7930937 3.9963875-3.9963865s-1.7930946-3.9963865-3.9963875-3.9963865-3.9963861 1.7930946-3.9963861 3.9963865" fill="#474646"/></g></g><g><path d="m35.0736351 15.9065266c0 .7904549-.6410217 1.4314137-1.431736 1.4314137-.7792435 0-1.4202652-.6409588-1.4202652-1.4314137 0-.7904558.6410217-1.4206553 1.4202652-1.4206553.7907143 0 1.431736.6301994 1.431736 1.4206553z" fill="#ecb021"/><path d="m34.848278 15.1425295c-.2182999-.1351671-.4782257-.2079544-.7589684-.2079544-.7691231 0-1.4138641.6342077-1.4138641 1.4243975 0 .2807426.0832558.5510139.2284508.7693768-.4157829-.2495213-.6858635-.7069969-.6858635-1.2268515 0-.7901897.6442337-1.413991 1.4240189-1.413991.5097008 0 .9569588.2599277 1.2062263.6550226z" fill="#e5a320"/><g><path d="m28.6110306 11.3956633c0-2.7769604 2.2591362-5.0360966 5.0360985-5.0360966 2.7769585 0 5.0360947 2.2591362 5.0360947 5.0360966s-2.2591362 5.0360975-5.0360947 5.0360975c-.2873421 0-.5198555-.2325134-.5198555-.5198555s.2325134-.5198555.5198555-.5198555c2.203289 0 3.9963837-1.7930937 3.9963837-3.9963865s-1.7930946-3.9963865-3.9963837-3.9963865c-2.2032948 0-3.9963875 1.7930946-3.9963875 3.9963865" fill="#474646"/></g></g></g><path d="m41.9437103 14.7058058v5.749629h-1.4351845v-7.1740274c0-.551013-.1350403-1.0708685-.3741531-1.5283432 1.2618027.6801166 1.8093376 1.7919817 1.8093376 2.9527416z" fill="#ecb021"/><g opacity=".3"><path d="m5.1081142 17.6014347c-.4305048 0-.7797828-.3492775-.7797828-.7797832v-1.8194923c0-1.0031586.8163352-1.8194933 1.8194933-1.8194933h2.0997272c.4305058 0 .7797832.3492775.7797832.7797823 0 .4305058-.3492775.7797832-.7797832.7797832h-2.0997271c-.1431632 0-.2599277.1167641-.2599277.2599277v1.8194923c-.0000001.4305058-.3492776.7797833-.7797829.7797833z" fill="#fff"/></g><g opacity=".3"><path d="m27.2716789 14.7422314h-9.4873562c-.4305058 0-.7797832-.3492775-.7797832-.7797832 0-.4305048.3492775-.7797823.7797832-.7797823h9.4873562c.4305058 0 .7797832.3492775.7797832.7797823.0000001.4305057-.3492774.7797832-.7797832.7797832z" fill="#fff"/></g><g fill="#d0d0f7"><path d="m11.3835821 32.377861v2.3349838c0 .6519661-.5336113 1.1852875-1.1852884 1.1852875h-2.346848c-.652256 0-1.1852889-.5333214-1.1852889-1.1852875v-2.3349838c0-.6518955.5330329-1.1852894 1.1852889-1.1852894h2.346848c.6516771 0 1.1852884.5333939 1.1852884 1.1852894z"/><path d="m11.3835821 38.9561577v2.3349838c0 .6519661-.5336113 1.1852875-1.1852884 1.1852875h-2.346848c-.652256 0-1.1852889-.5333214-1.1852889-1.1852875v-2.3349838c0-.6518974.5330329-1.1852913 1.1852889-1.1852913h2.346848c.6516771 0 1.1852884.5333939 1.1852884 1.1852913z"/></g><g fill="#d0d0f7"><path d="m17.9737434 32.377861v2.3349838c0 .6519661-.5336113 1.1852875-1.1852894 1.1852875h-2.3468485c-.652256 0-1.1852884-.5333214-1.1852884-1.1852875v-2.3349838c0-.6518955.5330324-1.1852894 1.1852884-1.1852894h2.3468485c.6516781 0 1.1852894.5333939 1.1852894 1.1852894z"/><path d="m17.9737434 38.9561577v2.3349838c0 .6519661-.5336113 1.1852875-1.1852894 1.1852875h-2.3468485c-.652256 0-1.1852884-.5333214-1.1852884-1.1852875v-2.3349838c0-.6518974.5330324-1.1852913 1.1852884-1.1852913h2.3468485c.6516781 0 1.1852894.5333939 1.1852894 1.1852913z"/></g><path d="m24.5639038 25.7995644v2.3349838c0 .6519661-.5336113 1.1852894-1.1852894 1.1852894h-2.3468475c-.652256 0-1.1852894-.5333233-1.1852894-1.1852894v-2.3349838c0-.6518936.5330334-1.1852875 1.1852894-1.1852875h2.3468475c.6516781 0 1.1852894.5333938 1.1852894 1.1852875z" fill="#d0d0f7"/><path d="m24.488842 25.3755188c-.1298828-.0499878-.2700195-.0800171-.4199219-.0800171h-2.3500977c-.6499023 0-1.1899414.5400391-1.1899414 1.1900024v2.3400269c0 .1400146.0297852.2799683.0698242.4099731-.4399414-.1699829-.75-.5999756-.75-1.0999756v-2.3400269c0-.6499634.5302734-1.1799927 1.1801758-1.1799927h2.3500977c.5.0000001.9399414.3200075 1.1098633.7600099z" fill="#c2c2ef"/><path d="m24.488842 31.9525814c-.1298828-.0499878-.2700195-.0800171-.4199219-.0800171h-2.3500977c-.6499023 0-1.1899414.540041-1.1899414 1.1900043v2.3400269c0 .1400146.0297852.2799683.0698242.4099731-.4399414-.1699829-.75-.5999756-.75-1.0999756v-2.3400269c0-.6499653.5302734-1.1799946 1.1801758-1.1799946h2.3500977c.5.0000001.9399414.3200075 1.1098633.7600099z" fill="#c2c2ef"/><path d="m17.8964539 31.9525814c-.1298828-.0499878-.2700195-.0800171-.4199219-.0800171h-2.3500977c-.6499023 0-1.1899414.540041-1.1899414 1.1900043v2.3400269c0 .1400146.0297852.2799683.0698242.4099731-.4399414-.1699829-.75-.5999756-.75-1.0999756v-2.3400269c0-.6499653.5302734-1.1799946 1.1801758-1.1799946h2.3500977c.5.0000001.9399414.3200075 1.1098633.7600099z" fill="#c2c2ef"/><path d="m11.3040657 31.9525814c-.1298828-.0499878-.2700195-.0800171-.4199219-.0800171h-2.3500976c-.6499023 0-1.1899414.540041-1.1899414 1.1900043v2.3400269c0 .1400146.0297852.2799683.0698242.4099731-.4399414-.1699829-.75-.5999756-.75-1.0999756v-2.3400269c0-.6499653.5302734-1.1799946 1.1801758-1.1799946h2.3500977c.4999999.0000001.9399413.3200075 1.1098632.7600099z" fill="#c2c2ef"/><path d="m24.5639038 38.9561577v2.3349838c0 .6519661-.5336113 1.1852875-1.1852894 1.1852875h-2.3468475c-.652256 0-1.1852894-.5333214-1.1852894-1.1852875v-2.3349838c0-.6518974.5330334-1.1852913 1.1852894-1.1852913h2.3468475c.6516781 0 1.1852894.5333939 1.1852894 1.1852913z" fill="#d0d0f7"/><path d="m31.1540642 25.7995644v2.3349838c0 .6519661-.5336113 1.1852894-1.1852894 1.1852894h-2.3468475c-.652256 0-1.1852894-.5333233-1.1852894-1.1852894v-2.3349838c0-.6518936.5330334-1.1852875 1.1852894-1.1852875h2.3468475c.6516781 0 1.1852894.5333938 1.1852894 1.1852875z" fill="#d0d0f7"/><path d="m31.1540642 32.377861v2.3349838c0 .6519661-.5336113 1.1852875-1.1852894 1.1852875h-2.3468475c-.652256 0-1.1852894-.5333214-1.1852894-1.1852875v-2.3349838c0-.6518955.5330334-1.1852894 1.1852894-1.1852894h2.3468475c.6516781 0 1.1852894.5333939 1.1852894 1.1852894z" fill="#d0d0f7"/><path d="m37.7442245 25.7995644v2.3349838c0 .6519661-.5336113 1.1852894-1.1852875 1.1852894h-2.3468513c-.652256 0-1.1852875-.5333233-1.1852875-1.1852894v-2.3349838c0-.6518936.5330315-1.1852875 1.1852875-1.1852875h2.3468513c.6516763 0 1.1852875.5333938 1.1852875 1.1852875z" fill="#d0d0f7"/><path d="m37.666935 25.3742867c-.1298828-.0499878-.2700195-.0800171-.4199219-.0800171h-2.3500977c-.6499023 0-1.1899414.5400391-1.1899414 1.1900024v2.3400269c0 .1400146.0297852.2799683.0698242.4099731-.4399414-.1699829-.75-.5999756-.75-1.0999756v-2.3400269c0-.6499634.5302734-1.1799927 1.1801758-1.1799927h2.3500977c.5.0000001.9399414.3200074 1.1098633.7600099z" fill="#c2c2ef"/><path d="m37.7490959 32.3755188v2.3400269c0 .6499634-.5400391 1.1799927-1.1904297 1.1799927h-2.3496094c-.6503906 0-1.1801758-.5300293-1.1801758-1.1799927v-2.3400269c0-.6499634.5297852-1.1799927 1.1801758-1.1799927h2.3496094c.6503907 0 1.1904297.5300293 1.1904297 1.1799927z" fill="#fc6559"/><path d="m37.666935 31.9525814c-.1298828-.0499878-.2700195-.0800171-.4199219-.0800171h-2.3500977c-.6499023 0-1.1899414.540041-1.1899414 1.1900043v2.3400269c0 .1400146.0297852.2799683.0698242.4099731-.4399414-.1699829-.75-.5999756-.75-1.0999756v-2.3400269c0-.6499653.5302734-1.1799946 1.1801758-1.1799946h2.3500977c.5.0000001.9399414.3200075 1.1098633.7600099z" fill="#f05543"/><g><path d="m35.7260704 20.9073677v7.6154251c0 .8048439.6524582 1.4573002 1.4573021 1.4573002h1.2922745c.2521133 0 .4564896.2043762.4564896.4564896v1.9563885c0 .4434357.5350266.6641121.8473053.3497505l2.631031-2.6290474c.085598-.085535.2016563-.1335812.3226662-.1335812h6.3022461c.8048439 0 1.4572983-.6524563 1.4572983-1.4573002v-7.6154251c0-.8048458-.6524544-1.4573002-1.4572983-1.4573002h-11.8520127c-.8048439 0-1.4573021.6524544-1.4573021 1.4573002z" fill="#fc6559"/><g fill="#f05543"><path d="m39.2352371 29.9811897h-.7578468c.2510948 0 .4564896.2054253.4564896.4564896v1.9537926c0 .4427795.5340614.6664581.8445549.3514786l.0318718-.0319328c-.072998-.0821915-.1185799-.1917458-.1185799-.3195457v-1.9537926c0-.2510644-.2009392-.4564897-.4564896-.4564897z"/><path d="m35.7247429 20.9061642v7.6188202c0 .8034267.6527481 1.4562054 1.4607468 1.4562054h.757843c-.8034248 0-1.4561768-.6527786-1.4561768-1.4562054v-7.6188202c0-.8034286.6527519-1.4562054 1.4561768-1.4562054h-.757843c-.8079987 0-1.4607468.6527767-1.4607468 1.4562054z"/><path d="m42.4351234 29.9811897v.1141224c.0776825-.0775967.187233-.1141224.2967873-.1141224h6.3041573c.8034248 0 1.4561768-.6527786 1.4561768-1.4562054v-.7714691c0 .8034267-.6527519 1.4562054-1.4561768 1.4562054h-5.8293915c-.4245033 0-.7715531.3469372-.7715531.7714691z"/></g><g opacity=".3"><g><path d="m39.7186966 20.9334965h3.2952881c.1890144 0 .3423653-.1533527.3423653-.3423691 0-.1890144-.1533508-.3423672-.3423653-.3423672h-3.2952881c-.1890182 0-.3423691.1533527-.3423691.3423672 0 .1890163.1533508.3423691.3423691.3423691z" fill="#fff"/></g><g><path d="m38.1780396 20.9334965h.3423691c.1890144 0 .3423691-.1533527.3423691-.3423691 0-.1890144-.1533546-.3423672-.3423691-.3423672h-.3423691c-.1890144 0-.3423653.1533527-.3423653.3423672 0 .1890163.1533508.3423691.3423653.3423691z" fill="#fff"/></g></g><g opacity=".3"><path d="m49.0092087 24.2608356v1.6975727c0 .1890163.1533508.3423672.3423653.3423672s.3423691-.1533508.3423691-.3423672v-1.6975727c0-.1890144-.1533508-.3423672-.3423691-.3423672-.1890145.0000001-.3423653.1533528-.3423653.3423672z" fill="#fff"/></g></g><g fill="#c2c2ef"><path d="m31.0767746 25.3742867c-.1298828-.0499878-.2700195-.0800171-.4199219-.0800171h-2.3500977c-.6499023 0-1.1899414.5400391-1.1899414 1.1900024v2.3400269c0 .1400146.0297852.2799683.0698242.4099731-.4399414-.1699829-.75-.5999756-.75-1.0999756v-2.3400269c0-.6499634.5302734-1.1799927 1.1801758-1.1799927h2.3500977c.5.0000001.9399414.3200074 1.1098633.7600099z"/><path d="m31.0767746 31.9525814c-.1298828-.0499878-.2700195-.0800171-.4199219-.0800171h-2.3500977c-.6499023 0-1.1899414.540041-1.1899414 1.1900043v2.3400269c0 .1400146.0297852.2799683.0698242.4099731-.4399414-.1699829-.75-.5999756-.75-1.0999756v-2.3400269c0-.6499653.5302734-1.1799946 1.1801758-1.1799946h2.3500977c.5.0000001.9399414.3200075 1.1098633.7600099z"/><path d="m24.488842 38.5308762c-.1298828-.0499878-.2700195-.0800171-.4199219-.0800171h-2.3500977c-.6499023 0-1.1899414.5400391-1.1899414 1.1900024v2.3400269c0 .1400146.0297852.2799683.0698242.4099731-.4399414-.1699829-.75-.5999756-.75-1.0999756v-2.3400269c0-.6499634.5302734-1.1799927 1.1801758-1.1799927h2.3500977c.5.0000001.9399414.3200074 1.1098633.7600099z"/><path d="m17.8964539 38.5308762c-.1298828-.0499878-.2700195-.0800171-.4199219-.0800171h-2.3500977c-.6499023 0-1.1899414.5400391-1.1899414 1.1900024v2.3400269c0 .1400146.0297852.2799683.0698242.4099731-.4399414-.1699829-.75-.5999756-.75-1.0999756v-2.3400269c0-.6499634.5302734-1.1799927 1.1801758-1.1799927h2.3500977c.5.0000001.9399414.3200074 1.1098633.7600099z"/><path d="m11.3040657 38.5308762c-.1298828-.0499878-.2700195-.0800171-.4199219-.0800171h-2.3500976c-.6499023 0-1.1899414.5400391-1.1899414 1.1900024v2.3400269c0 .1400146.0297852.2799683.0698242.4099731-.4399414-.1699829-.75-.5999756-.75-1.0999756v-2.3400269c0-.6499634.5302734-1.1799927 1.1801758-1.1799927h2.3500977c.4999999.0000001.9399413.3200074 1.1098632.7600099z"/></g><g opacity=".5"><g><path d="m4.196362 35.5855408c-.2763674 0-.5000002-.2236328-.5000002-.5v-7.1044922c0-.2763672.2236328-.5.5000002-.5s.5.2236328.5.5v7.1044922c0 .2763672-.2236328.5-.5.5z" fill="#fff"/></g><g><path d="m4.196362 26.3355408c-.2763674 0-.5000002-.2236328-.5000002-.5v-.6455078c0-.2763672.2236328-.5.5000002-.5s.5.2236328.5.5v.6455078c0 .2763672-.2236328.5-.5.5z" fill="#fff"/></g></g><g><path d="m42.6729317 26.9638271c-.1207085.1198654-.1819077.2650566-.1819077.4321938 0 .3590107.2883759.6221199.6136818.6221199.3411636 0 .6216965-.2690277.6216965-.6221199 0-.5365543-.6644745-.8239002-1.0534706-.4321938z" fill="#e4e3ff"/><path d="m43.6489983 27.0955505c-.2299805-.1400146-.550293-.1100464-.75.0899658-.1201172.1199951-.1801758.2700195-.1801758.4299927 0 .1199951.0302734.2300415.0898438.3200073-.1401063-.0563163-.3198243-.26198-.3198243-.539978 0-.1699829.0600586-.3099976.1801758-.4299927.2826042-.2826042.7564621-.239521.9799805.1300049z" fill="#c2c2ef"/><path d="m43.1133575 26.3298874c.2385902 0 .3760643-.1534729.3904076-.3503113.0042915-.1025963.1641006-3.921814.1540527-3.6816597 0-.1548958-.0519142-.2870026-.1544762-.392519-.3283424-.3389988-.9437332-.1185246-.9437332.392519.004303.1025963.164547 3.9239235.1544762 3.6837692.014122.1914387.1556092.3482018.3992729.3482018z" fill="#e4e3ff"/><path d="m42.7788811 22.5255432c.0044632.1025887.1706085 3.9201298.1601563 3.6799927 0 .039978.0097656.0700073.0297852.0999756-.1057396-.0212517-.25-.1488228-.25-.3200073-.0044518-.1025887-.170578-3.9301414-.1601563-3.6900024 0-.5134621.6253777-.7204685.9404297-.3899536.0400391.039978.0698242.0799561.0898438.1199951-.3571054-.1701432-.8100587.0511817-.8100587.4999999z" fill="#d0d0f7"/></g></g></svg>