<svg id="Layer_1" enable-background="new 0 0 73 73" height="512" viewBox="0 0 73 73" width="512" xmlns="http://www.w3.org/2000/svg"><g id="_x31_3"><g><g><g><g><path d="m54.0723419 60.2048988-7.470726.0140038v-4.7300797l1.9420624-1.3020515c.3743706-.2509956.8821411-.1427155 1.1215591.2391663.249733.3983383.1031113.9251404-.3165016 1.1371841l-.6059341.3061981 2.5502205.228817c1.4920197.1338692 2.6553001 1.350132 2.7226257 2.8466301z" fill="#fdcbc0"/><g><g><g><path d="m46.5990601 55.0933189-11.1794128-1.3235207v-12.0518645l-9.4624004-.52565-.0003471 14.0554008c-.0000782 3.0796852 2.4964905 5.5762901 5.5761719 5.5762901h15.0685444z" fill="#fdcbc0"/></g><path d="m36.8586998 60.2022133-8.9044437.0166893v-5.6378365l2.3147659-1.5519257c.4462166-.2991638 1.0514374-.170105 1.3367977.2850609l.0000019.0000038c.2976589.474781.1229 1.1026802-.3772411 1.3554192l-.7222214.3649635 3.0396385.272728c1.7783508.1595573 3.1648788 1.6092377 3.2451286 3.3929291z" fill="#f1b2a9"/><g><g><g><g><path d="m27.3846455 44.2266312h8.6833591v-4.4248352c0-4.723217-3.8289261-8.5521431-8.5521431-8.5521431h-2.1260891z" fill="#38aefa"/><path d="m33.3223114 36.688633v24.1353416h-25.0248938v-25.9511108c0-2.0046959 1.6147203-3.6193428 3.619379-3.6193428h15.9581652c.1462326 0 .2924633.0060997.4386959.0182972 2.7968083.2253723 5.0086537 2.5652256 5.0086537 5.4168148z" fill="#38aefa"/><g fill="#2d3548"><path d="m22.6118355 34.7483482-.4121933.697258c-.1135387.1879845-.3692703.1879845-.5585766 0l-.7268524-.705101-.019598-.2426796h1.6285782z"/><path d="m24.1540508 32.1478767-1.5422153 2.6004715-.0886421-.2505226h-1.6285782l.019598.2426796-2.6822987-2.5926285c-.2924786-.289917-.2189789-.752142.1175079-.752142h5.3635578c.336485.0000001.6129437.462225.4410706.752142z"/><path d="m28.6790733 51.9044189c-.5926037.9478722-1.2099094 1.8680611-1.8498821 2.7587433-.394453.5477028-1.0972996.3888741-1.4852867-.2943459-.6373539-1.1152611-1.3106461-2.1884499-2.015974-3.2182884-.2049561-.3021774-.3123989-.6668282-.3040543-1.0167236.2123108-5.2586594-.4268761-10.4573975-1.8532963-15.3994904-.0225525-.079052-.0452976-.1577377-.0683041-.2364235.5315857-.1100121 1.0631714-.2200279 1.5947437-.3302231.046629.0795937.0930538.159008.1392727.2387886 2.8193169 4.8428268 4.9111862 10.3879967 6.0000629 16.4304199.0735398.4021722.014866.7890474-.1572818 1.0675431z"/></g><path d="m17.241 23.268h6.289v7.992h-6.289z" fill="#fdcbc0"/><path d="m23.5328789 31.2597351-2.2804299.2719994-4.0088749-.2719994z" fill="#fdcbc0"/><path d="m23.5300903 23.2681046v5.8632336s-2.780304 1.4374523-6.288744.898407v-6.7616405h6.288744z" fill="#f1b2a9"/><g><path d="m33.3190384 44.2949371c.1073341 0 .1948776-.0875397.1948776-.1948738v-5.1816864c0-.1073303-.0875435-.1948738-.1948776-.1948738-.1073303 0-.1948738.0875435-.1948738.1948738v5.1816864c0 .1073342.0875435.1948738.1948738.1948738z" fill="#3778f8"/></g></g><g><path d="m28.7640839 14.7108717.1136398 4.526227c.0140057.5578079-.2020683 1.096817-.597496 1.4904957l-2.0628414-3.7955418.0046272-2.2264633z" fill="#0e0f16"/><path d="m28.3501568 19.5150528-.0079613 3.8308163c-.0063858 3.073555-2.4985962 5.5628452-5.5795822 5.5564423-3.0735073-.0063877-5.5628281-2.5060291-5.5564404-5.5795822l.0079594-3.8308182c.0063877-3.0734634 2.5060749-5.5628281 5.5795841-5.5564413 1.5367756.0031939 2.9311981.629776 3.938755 1.64153 1.0001717 1.0117378 1.6208783 2.4013214 1.6176854 3.9380531z" fill="#fdcbc0"/><ellipse cx="22.512" cy="21.178" fill="#0e0f16" rx=".833" ry=".52" transform="matrix(.002 -1 1 .002 1.287 43.646)"/><ellipse cx="26.209" cy="21.186" fill="#0e0f16" rx=".833" ry=".52" transform="matrix(.002 -1 1 .002 4.969 47.35)"/><path d="m22.151022 24.4869461c-.0013752.030695-.0092621.0594959-.0093269.0904999-.0024242 1.1664734.9412079 2.1140347 2.1076374 2.1164589 1.1664715.0024242 2.1140347-.9412079 2.1164589-2.1076794.0000648-.031004-.0077038-.0598392-.0089512-.0905399z" fill="#fff"/><path d="m15.7103062 22.0598373c.127717.1632977-1.6887207-2.1808414-1.6434021-5.8681316.0478144-3.890214 1.1209049-4.542057 4.3979092-5.6144352 0 0 1.1431828-1.3488503 4.0714149-1.1939125 2.9282303.1549387 8.6582165 1.2523203 7.9932194 4.7953644 2.3385029 1.7117062-4.603775 6.0285053-11.3697586 2.2594833 0 0 .4063644 1.435173-1.1582146 2.2134037l.0090542 2.278017c.0017338.4362774-.3654728.7832832-.8009548.7568932h-.0000019l-.0009212-1.0176945z" fill="#0e0f16"/><path d="m17.3219662 20.2072277c-1.0237961.0030117-1.8541794.8318481-1.8563099 1.8568726-.0021296 1.0249271.8248005 1.8573036 1.8485775 1.864378z" fill="#fdcbc0"/></g></g></g><g><path d="m27.9545097 55.4889336-11.9569177-2.3242073v-9.3962288l-9.4624004-.52565-.0003481 11.399765c-.0000772 3.0796852 2.49649 5.5762901 5.5761724 5.5762901h15.8434935v-4.729969z" fill="#fdcbc0"/></g><g><path d="m5.8579383 45.9446373c.0005779.6861572 10.3692856 1.0403786 10.3687077.3542213l.0086803-10.7312889c-.0172844-1.210598-.4936838-2.2916985-1.2385197-3.0772514-.7448349-.7669468-1.7646418-1.2730541-2.9014215-1.2289848-3.521244.1365051-5.5099473 2.60289-5.9083209 5.2733765-.3118363 1.7650184-.3984394 7.3862571-.3291259 9.4099273z" fill="#38aefa"/></g><g><path d="m16.1647778 46.5124321c-.0442505 0-.0726738-.0025864-.0778408-.003231l.0329437-.3294525c.0161514.0038757.4211845.0355301.5658855-.2667923.1169224-.2622719.0791321-2.8177948-.0161495-5.0890846l.3307438-.0142097c.0332699.8010216.1902447 4.8171196-.0164719 5.2467041-.1973495.4114913-.6388817.456066-.8191108.456066z" fill="#3778f8"/></g><g fill="#3778f8"><path d="m23.4845734 30.1832008 1.2553634 1.0527668-1.0202541 3.010767-2.2928524-2.7583713 2.1039982-1.3051625z"/><path d="m21.4246407 31.4958668v.0367546l-1.0389214 2.967432-4.3558197-3.2653027 1.2136745-1.7424373z"/></g></g></g></g></g><g><g><g><path d="m64.892662 57.7318459v1.117054c0 .7871513-.6381149 1.4252625-1.4252625 1.4252625h-29.1481818c-.7020378 0-1.2711563-.5691147-1.2711563-1.2711563v-.0000038c0-.7020378.5691185-1.2711563 1.2711563-1.2711563h30.5734443z" fill="#2d3548"/></g><g><path d="m47.1092262 37.4631386h-.7140274c-.3666763 0-.6812477.2613983-.7483864.6218719l-3.6590157 19.6468353h1.3465958z" fill="#2d3548"/><path d="m64.8797913 57.7318459h-21.8001633l3.7748413-20.2687454h20.8840485c.4762726 0 .8355865.4324074.7483826.900631z" fill="#454d6a"/></g><path d="m58.5631828 48.4066772c-.145504 1.2335739-1.2751122 2.2245255-2.5156212 2.2245255-1.2404709 0-2.1206017-.9909515-1.9681206-2.2245255.1455078-1.2266388 1.2751122-2.2175903 2.5156212-2.2175903 1.2404709 0 2.1206017.9909516 1.9681206 2.2175903z" fill="#2d3548"/></g></g><path d="m35.424984 60.2048988-7.4707279.0140038v-4.7300797l1.9420624-1.3020515c.3743706-.2509956.8821449-.1427155 1.1215591.2391663.249733.3983383.1031132.9251404-.3165016 1.1371841l-.6059341.3061981 2.5502224.228817c1.4920158.1338692 2.6553001 1.350132 2.7226257 2.8466301z" fill="#fdcbc0"/></g><g><g><g><path d="m68.5 60.8313141v2.2456474c0 .3059998-.2536774.5520744-.5595474.5520744h-62.8883763c-.3059096 0-.5520763-.2460746-.5520763-.5520744v-2.2456474c0-.3058167.2461667-.5595436.5520763-.5595436h62.8883743c.305872 0 .5595494.2537269.5595494.5595436z" fill="#9ea1cc"/></g></g></g><path d="m32.1067886 37.9209366.1420059 3.6916122c.0059052.1534653-.1095772.2783127-.2630424.2842178l-4.4107895.1696739c-.1535034.0059052-.2782364-.1097069-.2841396-.2631683l-.1420078-3.6916122c-.0059109-.1536255.1095791-.2783127.2630844-.2842178l4.4107876-.1696739c.1534633-.0059052.2781887.1095428.2841014.2631683z" fill="#fff"/></g><path d="m30.1829529 37.2602501v1.0817299c0 .2672119-.2203388.4809494-.4874706.4809494-.2604446 0-.4808254-.2137375-.4808254-.4809494v-1.0817299c0-.2672119.2203808-.4807854.4808254-.4807854.2671318 0 .4874706.2135735.4874706.4807854z" fill="#2d3548"/></g><g><path d="m65.4430695 32.3475151h-27.6555901c-1.3493652 0-2.4432411-1.0938759-2.4432411-2.443243v-11.1513329c0-1.3493652 1.0938759-2.443243 2.4432411-2.443243h27.6555901c1.3493652 0 2.4432449 1.0938778 2.4432449 2.443243v11.1513329c0 1.3493671-1.0938797 2.443243-2.4432449 2.443243z" fill="#c9c7f9"/><g><path d="m50.543438 24.5079098c0 1.1521759-.2832146 2.2334805-.7981339 3.1860847-.1222954.2382298-.2639198.4634953-.4119492.6823177-.450573.6565456-1.0298805 1.2422199-1.6863861 1.7057152-.032177.019249-.0579491.0450211-.0901222.0643501-.045063.0322151-.0836792.0579853-.1287422.0836792-.0515022.032135-.0965233.0643501-.1480293.0965633-.0193291.012886-.0321732.0193291-.0579453.0322151-.83675.5019951-1.7957993.8302689-2.8063469.9332752-.2317085.0257721-.4634171.0386581-.7015686.0386581-.2317467 0-.4698982-.012886-.6951637-.0386581-1.0169945-.1030064-1.9631538-.4248371-2.8063469-.9268322-.0193291-.012886-.0322151-.0257721-.0579491-.0322151-.0515022-.0386562-.1029663-.0708714-.1544724-.1030064-.0257721-.0193291-.0579453-.0385799-.0901222-.0579071-.0386162-.0257721-.0836792-.0579872-.1222954-.0901222-.6501045-.4570522-1.2229309-1.0298405-1.6863861-1.6992722-.1480293-.2189007-.2896538-.450531-.411953-.6887608-.5020332-.9526043-.791687-2.0339088-.791687-3.1860847 0-2.5810833 1.4289055-4.8210068 3.5272446-5.9796276.1222954-.070713.2510338-.1351433.379776-.1866074.0707932-.0386562.1415863-.0707932.2124176-.0965652.1222954-.0579853.2509995-.1093712.3797379-.1609135.0450592-.012886.0901222-.0257721.1351814-.0451012h.006443c.0514641-.0192509.0965271-.032135.1480293-.0514641h.006443c.0257339-.006443.045063-.0128078.0707932-.0192509.2059784-.0644283.4248009-.1158924.6436615-.1609154.0579453-.0128841.1158524-.0257702.1802444-.0322132h.0064011c.0901222-.0193291.1802444-.0322151.2703667-.0386581.0772362-.012886.1609154-.0193291.2381516-.0257702.1995316-.0256939.4055099-.0321369.6114845-.0321369.3475609 0 .6951256.0256939 1.0298386.0836792.0772362.006443.1544724.0193291.2252655.0386581h.006443c.2961006.0514641.5793114.1287003.8560791.2188206.0192909.0063648.045063.0063648.0643501.0192509.0193291 0 .03862.012886.0579491.0193291.0643501.0193291.1351433.0450993.2059746.0708714.1415863.0514641.2767677.1093712.411911.1737232.0579491.0257702.1158943.0579071.1738014.0836773 2.2528115 1.1199629 3.7976113 3.4307596 3.7976113 6.1212141z" fill="#fff"/><g><g><g><g><g><g><g><g><g><g><g><g><g><g><path d="m47.2800751 22.0169487v8.3096714c-.0193291.012886-.0321732.0193291-.0579453.0322151-.83675.5019951-1.7957993.8302689-2.8063469.9332752-.2317085.0257721-.4634171.0386581-.7015686.0386581-.2317467 0-.4698982-.012886-.6951637-.0386581-1.0169945-.1030064-1.9631538-.4248371-2.8063469-.9268322-.0193291-.012886-.0322151-.0257721-.0579491-.0322151v-8.3161144z" fill="#fdce4b"/></g></g></g></g></g></g><path d="m46.8978233 22.0074253-2.5506858 3.9086342-.6291886.9641457-.6291733-.9641457-2.5484199-3.9086342z" fill="#f0ecfd"/><g fill="#454d6a"><path d="m44.3471375 25.9160595-.6291886.9641457-.6291733-.9641457.2059479-2.0052357.0249062-.2512169h.7966537l.0226402.2172623z"/><path d="m44.5200119 23.4402561-.47892.5468292c-.1804962.206089-.5011826.206089-.6816788-.0000019l-.4789162-.5468273c-.2565346-.2929096-.0485229-.7515907.3408394-.7515907h.9578362c.3893662 0 .597374.4586811.3408394.7515907z"/></g></g><g><path d="m45.1370125 19.9524059v2.0595494l-1.4167977.6767101-1.4213104-.6767101v-2.0595494z" fill="#fdcbc0"/><path d="m45.1370125 19.9524059v1.0840912c-.3983345.2240582-.8555031.3507996-1.3421059.3507996-.5522346 0-1.0659943-.1629467-1.4960022-.4435883v-.9913025z" fill="#f1b2a9"/><g fill="#c9c7f9"><path d="m45.9732666 22.0136566-1.1113396 1.5000439-1.1426239-.8243809 1.4191704-1.2365551.8139343.558281z"/><path d="m41.4647217 22.0136566 1.1113395 1.5000439 1.1426278-.8243809-1.4191704-1.2365551-.8139382.558281z"/></g></g></g></g></g></g></g><g><ellipse cx="46.483" cy="17.667" fill="#fdcbc0" rx=".673" ry=".785"/><path d="m46.7521057 18.0208206c-.0157051 0-.031189-.0064144-.042469-.0190201-.0205688-.023447-.0185776-.0592785.0048676-.0800686.0807304-.0714436.1251869-.1619072.1251869-.2548046 0-.0931168-.0444565-.1835823-.1249657-.2548027-.0234489-.0207901-.0256577-.0564022-.0050888-.0798473.0207901-.0234451.0568428-.0256577.0798454-.0050869.1055069.0931187.163456.2136631.163456.3397369 0 .1258545-.0579491.2463989-.1632347.3397388-.0108376.0095101-.0243302.0141545-.0375977.0141545z" fill="#f1b2a9"/><ellipse cx="41.144" cy="17.667" fill="#fdcbc0" rx=".673" ry=".785"/><path d="m40.8750954 18.0208206c.0157051 0 .031189-.0064144.042469-.0190201.0205688-.023447.0185776-.0592785-.0048676-.0800686-.0807304-.0714436-.1251869-.1619072-.1251869-.2548046 0-.0931168.0444565-.1835823.1249657-.2548027.0234451-.0207901.0256577-.0564022.0050888-.0798473-.0207901-.0234451-.0568428-.0256577-.0798454-.0050869-.1055069.0931187-.163456.2136631-.163456.3397369 0 .1258545.0579491.2463989.1632347.3397388.0108376.0095101.0243302.0141545.0375977.0141545z" fill="#f1b2a9"/><path d="m46.5733566 16.8110332v1.4451332c0 1.5362587-1.2460442 2.7794189-2.7794189 2.7794189-1.5362053 0-2.7794037-1.2431602-2.7794037-2.7794189v-1.4451332c0-1.5362577 1.2431984-2.7794189 2.7794037-2.7794189.7681122 0 1.4622536.3100433 1.9657974.8135862.5035248.5035439.8136215 1.1976691.8136215 1.9658327z" fill="#fdcbc0"/><path d="m42.9477501 17.480072c0 .1929512-.1058922.3482628-.2376633.3482628s-.2400017-.1553116-.2400017-.3482628c0-.1929531.1082306-.3506031.2400017-.3506031s.2376633.15765.2376633.3506031z" fill="#333"/><path d="m45.1173172 17.480072c0 .1929512-.1058922.3482628-.2376595.3482628-.1317711 0-.2400055-.1553116-.2400055-.3482628 0-.1929531.1082344-.3506031.2400055-.3506031.1317673 0 .2376595.15765.2376595.3506031z" fill="#333"/><path d="m42.8239365 18.9800358c-.0006065.0141602-.0042152.0274525-.0042152.0417538 0 .5380516.4361687.9742222.9742012.9742222.5380516 0 .9742241-.4361706.9742241-.9742222 0-.0143013-.0036125-.0275936-.0042152-.0417538z" fill="#fff"/><path d="m46.6135216 17.3124466-.0385818.0337601s-.3372459.0385838-.3372459 0c0-.0385246-.0866966-.6407928-.0866966-.6407928s-.6022682-.8384104-.1686821-1.6092434c0 0-1.8251839 1.0110798-4.2197876.0667419 0 0-.3258057.2693319-.2216148 1.0021534.0510788.3592472-.111721.8824177-.265934 1.4268703h-.2601395l-.2120285-.6022682s-1.026207-1.8886747.1301003-2.8523035c0 0-.4095306-1.5418415 1.3153419-2.0911169l.2843132.9106359s.6793175-1.0696135 2.0332451-1.127429c1.3587494-.0626383 1.0647888 1.1707764 1.0647888 1.1707764s.8624687-.4047079 1.1948929.0482283c.3276596.452877-.2119713.9154005-.2119713.9154005s.4336433.3131914.5974464 1.0407362c.168682.7275438-.5974465 2.3078508-.5974465 2.3078508z" fill="#251a38"/></g></g><path d="m40.1547546 22.0169487v8.3161144c-.0515022-.0386562-.1029663-.0708714-.1544724-.1030064-.0257721-.0193291-.0579453-.0385799-.0901222-.0579071-.0386162-.0257721-.0836792-.0579872-.1222954-.0901222-.6501045-.4570522-1.2229309-1.0298405-1.6863861-1.6992722-.1480293-.2189007-.2896538-.450531-.411953-.6887608v-3.2182999c.0000001-1.358034 1.1071168-2.4587458 2.4652291-2.4587458z" fill="#fdce4b"/><path d="m40.1547546 25.808115v4.5249481c-.0515022-.0386562-.1029663-.0708714-.1544724-.1030064-.0257721-.0193291-.0579453-.0385799-.0901222-.0579071-.0386162-.0257721-.0836792-.0579872-.1222954-.0901222v-4.2739124z" fill="#f4bc24"/><path d="m49.7453041 24.4756947v3.2182999c-.1222954.2382298-.2639198.4634953-.4119492.6823177-.450573.6565456-1.0298805 1.2422199-1.6863861 1.7057152-.032177.019249-.0579491.0450211-.0901222.0643501-.045063.0322151-.0836792.0579853-.1287422.0836792-.0515022.032135-.0965233.0643501-.1480293.0965633v-8.3096714c1.3645553 0 2.465229 1.1007118 2.465229 2.458746z" fill="#fdce4b"/><path d="m47.6469688 25.808115v4.2739124c-.032177.019249-.0579491.0450211-.0901222.0643501-.045063.0322151-.0836792.0579853-.1287422.0836792-.0515022.032135-.0965233.0643501-.1480293.0965633v-4.518505z" fill="#f4bc24"/></g></g><g fill="#fff"><path d="m65.2253418 22.0451813h-12.0923309c-.358326 0-.6488037-.2904797-.6488037-.6488037v-1.4530526c0-.3583241.2904778-.6488037.6488037-.6488037h12.0923309c.3583221 0 .6488037.2904797.6488037.6488037v1.4530525c0 .3583241-.2904816.6488038-.6488037.6488038z"/><g><path d="m52.487 24.142h13.387v.763h-13.387z"/><path d="m52.487 25.744h13.387v.763h-13.387z"/><path d="m52.487 27.347h7.351v.763h-7.351z"/></g></g></g></g></svg>