<svg id="Layer_1" enable-background="new 0 0 55 55" height="512" viewBox="0 0 55 55" width="512" xmlns="http://www.w3.org/2000/svg"><g id="_x31_21"><g><g><g><g><g><g><g><path d="m44.0162468 13.3887758v38.5731344h-39.8420916v-48.9265861h31.4208537z" fill="#e7e7e7"/></g></g></g></g><g><g><g><g><path d="m44.0200386 13.3883753v38.5776482h-39.848422v-7.426033c0-3.8713608 3.1531134-6.9839783 6.9950418-6.9839783 6.6377392 0 12.5804214-4.1806793 14.8298721-10.3212147.2210255-.5967751.4088669-1.2156048.5525303-1.8454971.2431469-1.0055733.3868103-2.0553932.4199276-3.1272678.0110607-.1768475.0110607-.3536263.0110607-.5304737v-10.0891954c0-4.7575417 3.8608208-8.6083851 8.6194458-8.6083851z" fill="#d5d3d4"/></g></g></g></g><g><g><g><g><path d="m35.5950089 13.3887758c.9241219 0 .9241219-10.3534517 0-10.3534517l8.4212379 10.3534517c0-.5263109-8.4212379-.5263109-8.4212379 0z" fill="#c4c4c4"/></g></g></g></g></g><g><g><g><g><path d="m39.4497833 45.714222c-.7961082 0-1.441906-.6463928-1.441906-1.4425011v-10.2341576c0-.7961082.6457977-1.4425011 1.441906-1.4425011.7961121 0 1.4419098.6463928 1.4419098 1.4425011v10.2341576c0 .7961082-.6457977 1.4425011-1.4419098 1.4425011z" fill="#e7e7e7"/></g></g></g></g></g><g><g><g><g><path d="m29.3382874 12.3203659h-18.2982874c-.4186516 0-.7580366-.339385-.7580366-.7580366v-.3350878c0-.4186516.339385-.7580366.7580366-.7580366h18.2982864c.4186516 0 .7580357.339385.7580357.7580366v.3350878c.0000009.4186516-.3393832.7580366-.7580347.7580366z" fill="#d5d3d4"/></g></g></g></g><g><g><g><g><path d="m29.3382874 17.2931309h-18.2982874c-.4186516 0-.7580366-.3393841-.7580366-.7580357v-.3350887c0-.4186516.339385-.7580357.7580366-.7580357h18.2982864c.4186516 0 .7580357.3393841.7580357.7580357v.3350887c.0000009.4186516-.3393832.7580357-.7580347.7580357z" fill="#d5d3d4"/></g></g></g></g><g><g><g><g><path d="m37.8564491 22.2658958h-26.8164491c-.4186516 0-.7580366-.3393841-.7580366-.7580357v-.3350887c0-.4186516.339385-.7580357.7580366-.7580357h26.8164482c.4186516 0 .7580376.3393841.7580376.7580357v.3350887c.0000009.4186517-.3393851.7580357-.7580367.7580357z" fill="#d5d3d4"/></g></g></g></g><g><g><g><g><path d="m37.8564491 27.2386608h-26.8164491c-.4186516 0-.7580366-.3393841-.7580366-.7580357v-.3350887c0-.4186516.339385-.7580357.7580366-.7580357h26.8164482c.4186516 0 .7580376.3393841.7580376.7580357v.3350887c.0000009.4186516-.3393851.7580357-.7580367.7580357z" fill="#d5d3d4"/></g></g></g></g><g><g><g><g><path d="m37.8564491 32.2114258h-26.8164491c-.4186516 0-.7580366-.3393841-.7580366-.7580357v-.3350868c0-.4186535.339385-.7580376.7580366-.7580376h26.8164482c.4186516 0 .7580376.3393841.7580376.7580376v.3350868c.0000009.4186516-.3393851.7580357-.7580367.7580357z" fill="#d5d3d4"/></g></g></g></g><g><g><g><g><path d="m30.096323 11.3992825c0 .5083523-.408865.9172182-.928278.9172182h-2.1879959v-.6741371c0-.3978052.0221233-.7845488.0773621-1.17136h2.1106339c.5194129-.0000001.9282779.4088668.9282779.9282789z" fill="#c4c4c4"/></g></g></g></g><g><g><g><g><path d="m30.096323 16.3720474c0 .5083523-.408865.9172192-.928278.9172192h-2.1879959v-1.8454971h2.1879959c.519413 0 .928278.4088659.928278.9282779z" fill="#c4c4c4"/></g></g></g></g><g><g><g><g><path d="m38.6163521 21.3448143c0 .5083504-.4199257.9172173-.9282799.9172173h-10.7190838c.0110607-.1768475.0110607-.3536263.0110607-.5304737v-1.3150234h10.7080231c.5083542-.0000001.9282799.4088668.9282799.9282798z" fill="#c4c4c4"/></g></g></g></g><g><g><g><g><path d="m38.6163521 26.3175793c0 .5083504-.4199257.9172173-.9282799.9172173h-11.6915417c.2210255-.5967751.4088669-1.2156048.5525303-1.8454971h11.1390114c.5083542-.0000001.9282799.4088668.9282799.9282798z" fill="#c4c4c4"/></g></g></g></g><g><g><g><g><path d="m38.6163521 31.2903442c0 .5083504-.4199257.9172173-.9282799.9172173h-14.6751461c.5082836-.5746517.9834499-1.1934814 1.4033794-1.8454971h13.2717667c.5083542 0 .9282799.4088668.9282799.9282798z" fill="#c4c4c4"/></g></g></g></g></g><g><g><g><g><path d="m21.366478 27.697649c.5343952.5343952 1.400835.5343952 1.9352303 0l1.9052124-1.9052124c-.5343952.5343952-.5343952 1.4008369 0 1.9352303.5343933.5343952 1.400835.5343952 1.9352303 0l-1.9052124 1.9052124c-.5343952.5343952-.5343952 1.400835 0 1.9352303s1.400835.5343952 1.9352303 0l3.3175621-3.3175621c.5343952-.5343952.5343952-1.400835 0-1.9352303s-1.400835-.5343952-1.9352303 0l-.0825386.0825386-1.9352303-1.9352303.0825386-.0825386c.5343952-.5343952.5343952-1.400835 0-1.9352303s-1.400835-.5343952-1.9352303 0l-3.3175621 3.3175621c-.5343953.5343953-.5343953 1.4008351 0 1.9352303z" fill="#626681"/></g></g></g><g><g><g><path d="m29.1395702 29.600708 1.3501606-1.3501606c.5343952-.5343952.5343952-1.400835 0-1.9352303s-1.400835-.5343952-1.9352303 0l-.0825386.0825386-1.9352303-1.9352303.0825386-.0825386c.5343952-.5343952.5343952-1.400835 0-1.9352303s-1.400835-.5343952-1.9352303 0l-1.3501606 1.3501606z" fill="#4d5471"/></g></g></g><g><g><g><g><path d="m26.677433 19.8551273 15.5900421 15.5900402c.3655891.365593.3655891.9583321 0 1.3239212l-1.3851929 1.3851967c-.365593.3655891-.9583321.3655891-1.3239212 0l-15.5900421-15.590044c-.365591-.3655891-.365591-.9583302 0-1.3239193l1.3851929-1.3851948c.3655911-.365591.9583302-.365591 1.3239212 0z" fill="#6c8a8c"/></g></g></g><g><g><g><path d="m42.2674408 36.7691078.0000038-.0000038c.3655891-.3655891.3655891-.9583282 0-1.3239174l-15.5900497-15.5900497c-.365591-.365591-.9583302-.365591-1.3239212 0l-.0000019.0000019c-.3655891.3655891-.3655891.9583302 0 1.3239193l15.5900478 15.5900497c.3655929.3655892.9583321.3655892 1.3239212 0z" fill="#626681"/></g></g></g></g><g><g><g><g><path d="m37.9549065 45.0606613c2.5490875 2.5490875 7.1288185 2.1026382 10.2251778-.993721 3.096405-3.096405 3.5428543-7.6761398.9937668-10.2252274-2.5563393-2.5563374-7.1360741-2.1098881-10.2324753.986515-3.0963593 3.0963593-3.5428086 7.6760942-.9864693 10.2324334zm9.0010261-5.3718567c.7200851.720089.590519 2.0018616-.2807999 2.8731804-.8712769.8712769-2.1602592 1.008049-2.8803444.2879639s-.5904732-2.0162315.2807999-2.8875046c.8713188-.8713226 2.1602593-.9937248 2.8803444-.2736397z" fill="#626681"/></g></g></g><g><g><g><path d="m38.928093 41.144722 3.193718-3.193718c1.2262115-1.2262115 3.2142906-1.2262115 4.4404984 0l.0000076.0000038c1.7968521 1.7968559 4.7743988-.261116 3.6955833-2.561882-.2661438-.5675964-.6267929-1.0901566-1.0840492-1.5474129-2.5563393-2.5563374-7.1360741-2.1098881-10.2324753.986515-1.4804459 1.4804459-2.3529778 3.2990875-2.5815849 5.0737076-.1827165 1.4183961 1.5570525 2.2540322 2.5683021 1.2427865z" fill="#4d5471"/></g></g></g></g><g><g><g><path d="m38.6738129 42.790184c.5033264-.5033302 2.1507912-.7295532 2.8778229-.0025215s.9083786 1.7244377.4050484 2.2277641c-.5033302.5033302-1.5007362.3219833-2.2277641-.4050446-.7270318-.7270316-1.5584375-1.3168716-1.0551072-1.820198z" fill="#6c8a8c"/></g></g></g></g></g></svg>