<svg id="Layer_1" enable-background="new 0 0 52 52" height="512" viewBox="0 0 52 52" width="512" xmlns="http://www.w3.org/2000/svg"><g id="_x33_9"><g><g><g><path d="m47.3358459 17.1045933v23.7600079h-42.6700439v-23.7600079c0-2.4400024 1.9800415-4.4100342 4.4200439-4.4100342h33.8399658c2.4400025 0 4.4100342 1.9700317 4.4100342 4.4100342z" fill="#5b5e8b"/></g></g><g><g><path d="m47.3404617 37.9379349v2.9299927h-42.6699843v-23.7600098c0-2.0199594 1.3500366-3.7099619 3.2000122-4.2399912-.1300049.4100342-.2000122.8499756-.2000122 1.3099976v18.0125122c0 3.1742554 2.5732427 5.7474976 5.747498 5.7474976h33.9224863z" fill="#312e4b"/></g></g><g><g><path d="m44.9807587 45.683342h-37.9605265c-2.6613145 0-4.8187361-2.1574211-4.8187361-4.8187332v-.0000076h47.5979958v.0000076c0 2.6613121-2.1574211 4.8187332-4.8187332 4.8187332z" fill="#5b5e8b"/></g></g><g><g><path d="m11.040473 45.6879349h-4.019959c-2.6600342 0-4.8200073-2.1599731-4.8200073-4.8200073h4.0199585c0 2.6600341 2.1600346 4.8200073 4.8200078 4.8200073z" fill="#312e4b"/></g></g><g><g><path d="m7.6689148 35.9138374v-18.2702198c0-1.0783577.8741808-1.9525375 1.9525375-1.9525375h32.7648468c1.0783577 0 1.9525375.8741798 1.9525375 1.9525375v18.2702198c0 1.0783539-.8741798 1.9525337-1.9525375 1.9525337h-32.7648468c-1.0783567.0000001-1.9525375-.8741798-1.9525375-1.9525337z" fill="#deddff"/></g></g><g><g><path d="m11.3704901 37.8679276h-1.75c-1.0800171 0-1.9500127-.8800049-1.9500127-1.9500122v-18.2699586c0-1.0800171.8699956-1.9600229 1.9500127-1.9600229h1.75c-1.0800171 0-1.9500122.8800058-1.9500122 1.9600229v18.2699585c0 1.0800171.8699951 1.9500123 1.9500122 1.9500123z" fill="#c6c6f7"/></g></g><g><g><path d="m30.4296646 43.2739525c0 .4156723-.3431053.7587776-.7587757.7587776h-7.3434753c-.4156723 0-.7521324-.3431053-.7521324-.7587776s.3364601-.7587357.7521324-.7587357h7.3434753c.4156704 0 .7587757.3430634.7587757.7587357z" fill="#deddff"/></g></g></g><g><g><g><path d="m39.5558243 9.632472v12.6508551c0 1.8277702-1.4773903 3.320406-3.3204079 3.320406h-20.4708328c-1.8430176 0-3.3204069-1.4926357-3.3204069-3.320406v-12.6508551c0-1.8276782 1.4773893-3.3204064 3.3204069-3.3204064h20.4708328c1.8430176 0 3.3204079 1.4927282 3.3204079 3.3204064z" fill="#fcb73e"/></g></g><g><g><path d="m17.0288048 25.6037331h-1.2642212c-1.8430176 0-3.3204069-1.4926357-3.3204069-3.320406v-12.6508551c0-1.8276782 1.4773893-3.3204064 3.3204069-3.3204064h1.2642212c-1.8430176 0-3.320406 1.4927282-3.320406 3.3204064v12.6508551c0 1.8277702 1.4773884 3.320406 3.320406 3.320406z" fill="#fd982e"/></g></g><g><g><path d="m39.5558243 9.632472v1.538373l-11.9108677 9.0321331c-.9837646.7300282-2.3048019.7310257-3.2899132 0l-11.9108667-9.0321331v-1.538373c0-1.8276782 1.4773893-3.3204064 3.3204069-3.3204064h20.4708328c1.8430176 0 3.3204079 1.4927282 3.3204079 3.3204064z" fill="#fd982e"/></g></g><g><g><path d="m26.9023132 19.2298107c-.5334949.4046402-1.2711315.4046402-1.8046265 0l-12.65351-9.5973387c0-1.8276782 1.4773893-3.3204064 3.3204069-3.3204064h20.4708328c1.8430176 0 3.3204079 1.4927282 3.3204079 3.3204064z" fill="#fcb73e"/></g></g></g><g><g><path d="m31.1365757 32.8345566c0 1.3955154-1.1138535 2.5641594-2.5524387 2.5641594h-5.5615234c-1.4167519 0-2.5641594-1.1474075-2.5641594-2.5641594 0-1.4137325 1.1338196-2.5641575 2.5641594-2.5641575h5.5615234c1.4166793 0 2.5524387 1.1474075 2.5524387 2.5641575z" fill="#e83d62"/></g></g><g><g><path d="m25.0274944 35.398716h-2c-1.4199829 0-2.5700073-1.1500244-2.5700073-2.5599976 0-1.4279194 1.1396427-2.5700073 2.5700073-2.5700073h2c-1.4278984 0-2.5700073 1.1396408-2.5700073 2.5700073 0 1.4099732 1.1500244 2.5599976 2.5700073 2.5599976z" fill="#ce2955"/></g></g><g><g><path d="m38.672718 30.1870003-.593586.5935841 1.1571503 1.1571503c.1408119.14081.1408119.3691044 0 .5099125l-.445446.445446c-.1408081.1408081-.3691025.1408081-.5099106 0l-1.1571541-1.1571503-.5929337.5929375c-.2010651.2010651-.5450287.0981216-.6025772-.1803398l-.5586815-2.7032566c-.0520401-.2517929.1709061-.4744816.4226379-.4221516l2.7005615.5613747c.2782137.0578326.380871.4015597.1799394.6024932z" fill="#5b5e8b"/></g></g></g></svg>