<svg id="Layer_1" enable-background="new 0 0 53 53" height="512" viewBox="0 0 53 53" width="512" xmlns="http://www.w3.org/2000/svg"><g id="_x38_2"><g><g><g><g><path d="m48.9552193 16.2955894v28.8961601h-44.9027453v-28.8961601c0-1.8414068 1.4865031-3.327775 3.3166709-3.327775h38.2583008c1.8415408 0 3.3277736 1.4863682 3.3277736 3.327775z" fill="#474646"/></g></g><g><g><path d="m48.9469948 16.2924995v28.9029083h-44.8986721v-1.9593544h41.0297318c1.0546341 0 1.9095879-.85495 1.9095879-1.9095879v-26.9933194c0-.4095726-.0775642-.7969847-.2102585-1.1512222 1.2729014.4649076 2.1696109 1.6825447 2.1696109 3.1105756z" fill="#2d2c2c"/></g></g><g><g><path d="m7.8167691 40.3222237v-22.4825764c0-.6113625.4956059-1.1069679 1.1069674-1.1069679h35.1575737c.6113586 0 1.1069679.4956055 1.1069679 1.1069679v22.4825764c0 .6113625-.4956093 1.1069679-1.1069679 1.1069679h-35.1575736c-.6113615 0-1.1069675-.4956055-1.1069675-1.1069679z" fill="#a1a1f8"/></g></g><g><g><path d="m45.1727486 17.6931973c-.0444145-.0110359-.088829-.0110359-.1331062-.0110359h-35.1635638c-.6100101 0-1.1092577.4991131-1.1092577 1.1092587v22.4846153c0 .0444145 0 .099865.0111036.1442108-.5435257-.066555-.9649138-.5324249-.9649138-1.098156v-22.484684c0-.6100788.4991117-1.1092587 1.1092582-1.1092587h35.1634293c.56573 0 1.0204305.4215241 1.0870504.9650498z" fill="#5e5eee"/></g></g></g><g><g><g><path d="m50.3885002 46.5223198-.7040863 1.5384445c-.6388359 1.4080963-2.0338821 2.3206749-3.5853767 2.3206749h-39.2111244c-1.5385227 0-2.9465406-.9125786-3.5853767-2.3206749l-.6910379-1.5384445c-.3780656-.8344307.2346697-1.7992134 1.1603773-1.7992134h45.4562454c.9257106 0 1.5384463.9647827 1.1603793 1.7992134z" fill="#474646"/></g></g><g><g><path d="m50.3834038 46.5235748-.6982536 1.5382767c-.6437187 1.4074287-2.0292397 2.3238297-3.5893593 2.3238297h-39.2104383c-1.3310513 0-2.5529628-.6873322-3.2729914-1.7783318.6218097.4036636 1.3637464.6327972 2.1273911.6327972h39.2104378c1.5601196 0 2.9457054-.9164658 3.5894241-2.3238297l.7091064-1.5382767c.0982208-.2072906.12006-.4364243.0982208-.6437149.8618637.076378 1.3964439.9819223 1.0364624 1.7892495z" fill="#2d2c2c"/></g></g><g><g><path d="m33.4372902 44.7231064-1.0229263.9585762c-.2605515.2441559-.6042404.380024-.9613113.380024h-9.906105c-.3570709 0-.7007618-.1358681-.9613094-.380024l-1.0229301-.9585762z" fill="#e4e3ff"/></g></g><g><g><path d="m32.9274483 45.2034454h-11.9245911l.9164009.8619308h-.3709011c-.3600483 0-.6982536-.1418343-.960083-.3818893l-1.0255394-.960083h13.8774509z" fill="#d0d0f7"/></g></g></g><g><g><g><path d="m50.3885002 46.5223198-.7040863 1.5384445c-.6388359 1.4080963-2.0338821 2.3206749-3.5853767 2.3206749h-39.2111244c-1.5385227 0-2.9465406-.9125786-3.5853767-2.3206749l-.6910379-1.5384445c-.3780656-.8344307.2346697-1.7992134 1.1603773-1.7992134h45.4562454c.9257106 0 1.5384463.9647827 1.1603793 1.7992134z" fill="#e4e3ff"/></g></g><g><g><path d="m50.3834038 46.5235748-.6982536 1.5382767c-.6437187 1.4074287-2.0292397 2.3238297-3.5893593 2.3238297h-39.2104383c-1.3310513 0-2.5529628-.6873322-3.2729914-1.7783318.6218097.4036636 1.3637464.6327972 2.1273911.6327972h39.2104378c1.5601196 0 2.9457054-.9164658 3.5894241-2.3238297l.7091064-1.5382767c.0982208-.2072906.12006-.4364243.0982208-.6437149.8618637.076378 1.3964439.9819223 1.0364624 1.7892495z" fill="#d0d0f7"/></g></g><g><g><path d="m35.5207596 44.7231064-1.3854294 2.1101761c-.2946129.4487343-.7953491.7189903-1.3321533.7189903h-12.6063538c-.5368061 0-1.0375404-.270256-1.3321552-.7189903l-1.3854256-2.1101761z" fill="#cfcff6"/></g></g><g><g><path d="m35.0803566 45.3944893h-13.5134163c-1.0837765 0-1.7329159 1.2049217-1.1367321 2.1099854h.0000019c.0100098.0200195.0200195.0299683.0400391.0499878h-.2700195c-.5400391 0-1.0400391-.2700195-1.3398438-.7199707l-1.380127-2.1100464h18.0400391z" fill="#c1c1ee"/></g></g></g><g opacity=".25"><g><path d="m6.3547359 21.9644203v.822752c0 .2977772-.2415934.5393715-.5393715.5393715s-.5393715-.2415943-.5393715-.5393715v-.822752c0-.2977791.2415934-.5393715.5393715-.5393715s.5393715.2415924.5393715.5393715z" fill="#fff"/></g></g><g opacity=".25"><g><path d="m6.3547359 24.9539471v6.7052078c0 .2977791-.2415934.5393734-.5393715.5393734s-.5393715-.2415943-.5393715-.5393734v-6.7052078c0-.2977772.2415934-.5393715.5393715-.5393715s.5393715.2415943.5393715.5393715z" fill="#fff"/></g></g></g><g><g><g><path d="m40.7318039 12.486064v20.9370689c0 .6147995-.1446495 1.2004623-.404995 1.7211533-.6291885 1.2945747-1.9599152 2.1841087-3.5003548 2.1841087h-20.6529083c-2.1551943 0-3.9053507-1.7501106-3.9053507-3.905262v-26.9035511c0-2.1551518 1.7501564-3.9052632 3.9053507-3.9052632h14.2307987c.4339523 0 .8606224.0723915 1.2656174.2169983.4990177.1663241.9691219.4412355 1.3596401.8028407l6.4582596 5.9954391c.426712.397624.7521667.8750553.9546432 1.4029846.1952783.4555378.2892991.9474478.2892991 1.4534827z" fill="#e4e3ff"/></g></g><g><g><path d="m40.7318039 12.486064v20.9370689c0 2.1551514-1.7501564 3.905262-3.9053497 3.905262h-20.6529084c-1.5838308 0-2.943469-.940033-3.5509844-2.2997589.5352125.2819748 1.1354446.4338226 1.7791119.4338226h20.6529503c2.1551514 0 3.9053078-1.7501144 3.9053078-3.9052639v-20.9368925c0-.5062113-.0940208-.9981213-.289257-1.4536591-.0723457-.1880417-.1591301-.368844-.2676277-.542408l1.084816 1.0053616c.426712.397624.7521667.8750553.9546432 1.4029846.1952772.4555378.289298.9474478.289298 1.4534827z" fill="#d0d0f7"/></g></g><g opacity=".5"><g><g><g><path d="m21.9964504 6.0503249h.5833721c.2994537 0 .5424061-.2429533.5424061-.5424075s-.2429523-.5424075-.5424061-.5424075h-.5833721c-.2994537 0-.5424061.2429533-.5424061.5424075s.2429524.5424075.5424061.5424075z" fill="#fff"/></g></g></g><g><g><g><path d="m15.9445114 6.0503249h3.9229202c.2994537 0 .542408-.2429533.542408-.5424075s-.2429543-.5424075-.542408-.5424075h-3.9229202c-.2994537 0-.542407.2429533-.542407.5424075s.2429533.5424075.542407.5424075z" fill="#fff"/></g></g></g></g><g><g><path d="m31.6701622 2.8317227v6.2508855c0 1.0771646.8732147 1.9503794 1.9503784 1.9503794h6.8221169c-.2024765-.5279293-.5279274-1.0053606-.9545975-1.4030733l-6.4583054-5.9953508c-.3905181-.361605-.8606224-.6365164-1.3595924-.8028408z" fill="#d0d0f7"/></g></g></g><g><g><g><g><g><g><path d="m17.4146938 22.5078087c0-4.6252079 3.7417049-8.3669128 8.3669128-8.3669128 4.6148033 0 8.3565083 3.7417049 8.3565083 8.3669128 0 4.6148052-3.7417049 8.3565102-8.3565083 8.3565102-4.6252078-.0000001-8.3669128-3.741705-8.3669128-8.3565102z" fill="#fb6559"/></g></g><g opacity=".3"><g><g><path d="m32.3737679 23.8355961c.0419235 0 .0845261.0058918.1269035.0179024.2465553.0700245.3897743.3265514.3197517.5731068-.6046066 2.1306267-2.1913605 3.9070549-4.24403 4.7521-.2372665.0981236-.508297-.0156364-.6059666-.252676-.0974445-.2368107.0156364-.5080681.2524471-.6057396 1.7920647-.7376289 3.1769047-2.2878952 3.704689-4.1470394.058014-.204178.2438356-.3376542.4462053-.3376542z" fill="#fff"/></g></g></g><g><g><path d="m17.4132633 22.5053749c0-4.6225986 3.7475052-8.3605824 8.3701038-8.3605824 2.606123 0 4.9364338 1.1984491 6.467762 3.0627098-1.4457569-1.1794071-3.2909775-1.8832436-5.288353-1.8832436-4.632061 0-8.3700466 3.7379837-8.3700466 8.3605251 0 1.9973755.6943169 3.8330746 1.8642025 5.26931-1.8547401-1.5313262-3.0436687-3.8521174-3.0436687-6.4487189z" fill="#e14b40"/></g></g></g></g></g><g><g><g><path d="m28.8763599 22.6052895h-1.1391487v3.9594059c0 .4102745-.3325939.7428665-.7428684.7428665h-2.5010319c-.4102745 0-.7428665-.332592-.7428665-.7428665v-3.9594059h-1.0755501c-.5381603 0-.8332481-.6222973-.4959316-1.044136l3.1007328-3.8707657c.2543087-.3174629.7372971-.3174629.9916058 0l3.1043262 3.8752518c.3354759.4187888.037323 1.0396499-.4992676 1.0396499z" fill="#fff"/></g></g><g><g><path d="m23.7507362 26.5658092v-.4746246h2.1935844c.4009171 0 .7382336-.3374443.7382336-.7487907v-3.9586983h1.1391487c.5379028 0 .8332481-.6222954.4956741-1.0336418l-2.2674847-2.8371239c.0844574.0422287.158102.1055088.2214451.1793442l3.1007328 3.8707027c.3375721.4218369.0422287 1.0441341-.4956741 1.0441341h-1.1391506v3.9586983c0 .4113445-.3373165.7382965-.7382336.7382965h-2.5100422c-.400917.0000001-.7382335-.3269519-.7382335-.7382965z" fill="#e3e2ff"/></g></g></g></g></g></svg>