<svg id="Layer_1" enable-background="new 0 0 52 52" height="512" viewBox="0 0 52 52" width="512" xmlns="http://www.w3.org/2000/svg"><g id="_x34_6"><g><path d="m.9013816 9.7749939v36.4299927c0 2.1300049 1.7300415 3.8500366 3.8500366 3.8500366h34.2999878c2.1300049 0 3.8499756-1.7200317 3.8499756-3.8500366v-36.4299927z" fill="#deddff"/><path d="m7.0014181 50.0550232h-2.25c-2.1199951 0-3.8500366-1.7200317-3.8500366-3.8500366v-36.4299927h2.25v36.4299927c0 2.1300049 1.7300415 3.8500366 3.8500366 3.8500366z" fill="#c6c6f7"/><g><path d="m42.9013824 5.7950134v4.0599976h-42v-4.0599976c0-2.1300049 1.7300415-3.8500366 3.8500366-3.8500366h34.2999878c2.1300049 0 3.8499756 1.7200317 3.8499756 3.8500366z" fill="#5b5e8b"/></g><g><path d="m7.0014181 1.9449768c-2.1199951 0-3.8500366 1.7200317-3.8500366 3.8500366v4.0599976h-2.25v-4.0599976c0-2.1300049 1.7300415-3.8500366 3.8500366-3.8500366z" fill="#312e4b"/></g><g fill="#deddff"><circle cx="6.317" cy="5.879" r="1.398"/><circle cx="10.651" cy="5.879" r="1.398"/><circle cx="14.986" cy="5.879" r="1.398"/><path d="m38.883152 5.8841958c0 .5199585-.4299927.9499512-.9500122.9499512h-12.4099731c-.5300293 0-.9500122-.4299927-.9500122-.9499512 0-.5300293.4199829-.960022.9500122-.960022h12.4099731c.5200195 0 .9500122.4299927.9500122.960022z"/></g></g><g><g><path d="m16.64361 38.2991142v6.3300171c0 .789978-.6399536 1.4299927-1.4299927 1.4299927h-8.8900151c-.789978 0-1.4199829-.6400146-1.4199829-1.4299927v-6.3300171c0-.789978.6300049-1.4299927 1.4199829-1.4299927h8.8900146c.7900396.0000001 1.4299932.6400147 1.4299932 1.4299927z" fill="#65b9ff"/><path d="m9.1336002 46.059124h-2.809998c-.789978 0-1.4199829-.6400146-1.4199829-1.4299927v-6.3300171c0-.789978.6300049-1.4299927 1.4199829-1.4299927h2.809998c-.789978 0-1.4299932.6400146-1.4299932 1.4299927v6.3300171c.0000001.789978.6400152 1.4299927 1.4299932 1.4299927z" fill="#3e7fff"/><g><g><path d="m38.3014565 39.2933006h-17.3814755c-.3300514 0-.5976849-.2676353-.5976849-.5976868s.2676334-.5976868.5976849-.5976868h17.3814754c.3300552 0 .5976868.2676353.5976868.5976868s-.2676315.5976868-.5976867.5976868z" fill="#b5b5ea"/></g><g><path d="m38.3014565 42.0618095h-17.3814755c-.3300514 0-.5976849-.2676353-.5976849-.5976868s.2676334-.597683.5976849-.597683h17.3814754c.3300552 0 .5976868.2676315.5976868.597683s-.2676315.5976868-.5976867.5976868z" fill="#b5b5ea"/></g><g><path d="m29.1590271 44.8303185h-8.2390461c-.3300514 0-.5976849-.2676315-.5976849-.597683s.2676334-.5976868.5976849-.5976868h8.2390461c.3300514 0 .5976849.2676353.5976849.5976868s-.2676335.597683-.5976849.597683z" fill="#b5b5ea"/></g></g></g><g><path d="m16.64361 26.75v6.3300171c0 .789978-.6399536 1.4299927-1.4299927 1.4299927h-8.8900151c-.789978 0-1.4199829-.6400146-1.4199829-1.4299927v-6.3300171c0-.789978.6300049-1.4299927 1.4199829-1.4299927h8.8900146c.7900396 0 1.4299932.6400147 1.4299932 1.4299927z" fill="#e83d62"/><path d="m9.1336002 34.5100098h-2.809998c-.789978 0-1.4199829-.6400146-1.4199829-1.4299927v-6.3300171c0-.789978.6300049-1.4299927 1.4199829-1.4299927h2.809998c-.789978 0-1.4299932.6400146-1.4299932 1.4299927v6.3300171c.0000001.789978.6400152 1.4299927 1.4299932 1.4299927z" fill="#ce2955"/><g><g><path d="m38.3014565 27.7441826h-17.3814755c-.3300514 0-.5976849-.2676334-.5976849-.5976849s.2676334-.5976849.5976849-.5976849h17.3814754c.3300552 0 .5976868.2676334.5976868.5976849s-.2676315.5976849-.5976867.5976849z" fill="#b5b5ea"/></g><g><path d="m38.3014565 30.5126934h-17.3814755c-.3300514 0-.5976849-.2676334-.5976849-.5976849s.2676334-.5976849.5976849-.5976849h17.3814754c.3300552 0 .5976868.2676334.5976868.5976849s-.2676315.5976849-.5976867.5976849z" fill="#b5b5ea"/></g><g><path d="m29.1590271 33.2812042h-8.2390461c-.3300514 0-.5976849-.2676353-.5976849-.5976868s.2676334-.597683.5976849-.597683h8.2390461c.3300514 0 .5976849.2676315.5976849.597683s-.2676335.5976868-.5976849.5976868z" fill="#b5b5ea"/></g></g></g><g><path d="m16.64361 15.2008848v6.3300161c0 .789978-.6399536 1.4299927-1.4299927 1.4299927h-8.8900151c-.789978 0-1.4199829-.6400146-1.4199829-1.4299927v-6.3300161c0-.789978.6300049-1.4299927 1.4199829-1.4299927h8.8900146c.7900396 0 1.4299932.6400147 1.4299932 1.4299927z" fill="#46cc6b"/><path d="m9.1336002 22.9608936h-2.809998c-.789978 0-1.4199829-.6400146-1.4199829-1.4299927v-6.3300161c0-.789978.6300049-1.4299927 1.4199829-1.4299927h2.809998c-.789978 0-1.4299932.6400146-1.4299932 1.4299927v6.3300161c.0000001.7899781.6400152 1.4299927 1.4299932 1.4299927z" fill="#179c5f"/><g><g><path d="m38.3014565 16.1950684h-17.3814755c-.3300514 0-.5976849-.2676344-.5976849-.5976858s.2676334-.5976849.5976849-.5976849h17.3814754c.3300552 0 .5976868.2676334.5976868.5976849s-.2676315.5976858-.5976867.5976858z" fill="#b5b5ea"/></g><g><path d="m38.3014565 18.9635792h-17.3814755c-.3300514 0-.5976849-.2676353-.5976849-.5976868s.2676334-.5976849.5976849-.5976849h17.3814754c.3300552 0 .5976868.2676334.5976868.5976849s-.2676315.5976868-.5976867.5976868z" fill="#b5b5ea"/></g><g><path d="m29.1590271 21.7320881h-8.2390461c-.3300514 0-.5976849-.2676334-.5976849-.5976849s.2676334-.5976849.5976849-.5976849h8.2390461c.3300514 0 .5976849.2676334.5976849.5976849s-.2676335.5976849-.5976849.5976849z" fill="#b5b5ea"/></g></g></g></g><g><g><path d="m50.8279762 21.6255493-7.4689598 15.9768829c-.5404472 1.1651535-1.3976402 2.1548538-2.4737091 2.8560982l-2.3258934 1.5157127c-.2858009.1862526-.6679573.0091209-.7105522-.3293419l-.3466339-2.7542953c-.1605415-1.275631.0412254-2.5706863.5822182-3.7370186l7.4680939-15.975008c.6757088-1.4567719 2.4044304-2.0899448 3.8611984-1.4142342l.0000076.0000038c1.4567718.6757108 2.0899429 2.4044305 1.4142303 3.8612004z" fill="#e83d62"/><path d="m51.006073 19.6990795c-1.3300171-.3499756-2.7600098.3000488-3.3500366 1.5800171l-7.4699707 15.9800396c-.5400391 1.1599731-.7399902 2.4599609-.5800171 3.7299805l.039978.2799683-1.0899658.710022c-.2800293.1799927-.6600342 0-.710022-.3300171l-.3399658-2.7600099c-.1600342-1.2699585.039978-2.5699463.5799561-3.7399902l7.4700317-15.9699688c.6699829-1.460022 2.3999634-2.0900269 3.8599854-1.4100342.830017.3800049 1.3900146 1.1100464 1.5900268 1.9299927z" fill="#ce2955"/><path d="m42.8872719 38.4558678c-.5213051.7966652-1.1982613 1.4811783-2.0032272 2.0024605l-.8477821.5533524-1.4776802.964138c-.2847824.1834259-.66605.0065765-.7099571-.3293076l-.221653-1.7523575-.1251221-1.0046272c-.1186638-.949707-.0366135-1.9101601.2348824-2.8226967z" fill="#ffaf93"/><path d="m46.501 19.2h1.795v5.815h-1.795z" fill="#deddff" transform="matrix(.421 -.907 .907 .421 7.399 55.804)"/><g fill="#5b5e8b"><path d="m50.1171799 23.1579609.7107964-1.5324078c.6757202-1.4567871.0425491-3.1855011-1.4142189-3.8612099l-.0000191-.0000095c-1.456768-.6757107-3.185482-.0425396-3.8612022 1.4142475l-.7107964 1.5324078z"/><path d="m40.0362625 41.0116806-1.4776802.964138c-.2847824.1834259-.66605.0065765-.7099571-.3293076l-.221653-1.7523575c.4545288-.1446495.9575653-.1269913 1.4242973.0895004.4667511.2164995.8051377.5891267.984993 1.0280267z"/></g></g></g><g fill="#deddff"><path d="m13.3976583 16.8531246c-.2539063-.2539063-.6650391-.2539063-.9189453 0l-2.1230469 2.1230469-.6445313-.621582c-.2587891-.2475586-.6694336-.2416992-.9194336.0170898-.2490234.2587891-.2412109.6699219.0170898.9194336l1.1040039 1.0639648c.1259766.1210938.2885742.1816406.4511719.1816406.1665039 0 .3330078-.0634766.4594727-.1904297l2.5742188-2.5742188c.2539063-.2539061.2539063-.6650389 0-.9189452z"/><path d="m13.3976583 28.1684265c-.2539063-.2539063-.6650391-.2539063-.9189453 0l-2.1230469 2.1230469-.6445313-.621582c-.2587891-.2475586-.6694336-.2416992-.9194336.0170898-.2490234.2587891-.2412109.6699219.0170898.9194336l1.1040039 1.0639648c.1259766.1210938.2885742.1816406.4511719.1816406.1665039 0 .3330078-.0634766.4594727-.1904297l2.5742188-2.5742188c.2539063-.2539061.2539063-.6650389 0-.9189452z"/><path d="m13.3976583 39.4837303c-.2539063-.2539063-.6650391-.2539063-.9189453 0l-2.1230469 2.1230469-.6445313-.621582c-.2587891-.2475586-.6694336-.2416992-.9194336.0170898-.2490234.2587891-.2412109.6699219.0170898.9194336l1.1040039 1.0639648c.1259766.1210938.2885742.1816406.4511719.1816406.1665039 0 .3330078-.0634766.4594727-.1904297l2.5742188-2.5742188c.2539063-.2539061.2539063-.6650389 0-.9189452z"/></g></g></svg>