<svg id="Layer_1" enable-background="new 0 0 52 52" height="512" viewBox="0 0 52 52" width="512" xmlns="http://www.w3.org/2000/svg"><g id="_x32_4"><path d="m47.3358459 18.4716511v23.7600117h-42.6700439v-23.7600117c0-2.4400024 1.9800415-4.4100342 4.4200439-4.4100342h33.8399658c2.4400025 0 4.4100342 1.9700317 4.4100342 4.4100342z" fill="#5b5e8b"/><path d="m47.3404617 39.3049927v2.9299927h-42.6699843v-23.7600098c0-2.0199585 1.3500366-3.7099609 3.2000122-4.2399902-.1300049.4100342-.2000122.8499756-.2000122 1.3099976v18.0125122c0 3.1742554 2.5732427 5.7474976 5.747498 5.7474976h33.9224863z" fill="#312e4b"/><path d="m44.9807587 47.0504036h-37.9605265c-2.6613145 0-4.8187361-2.1574249-4.8187361-4.818737v-.0000038h47.5979958v.0000038c0 2.6613121-2.1574211 4.818737-4.8187332 4.818737z" fill="#5b5e8b"/><path d="m11.040473 47.0549927h-4.019959c-2.6600342 0-4.8200073-2.1599731-4.8200073-4.8200073h4.0199585c0 2.6600341 2.1600346 4.8200073 4.8200078 4.8200073z" fill="#312e4b"/><path d="m7.6689148 37.2808952v-18.2702198c0-1.0783558.8741808-1.9525375 1.9525375-1.9525375h32.7648468c1.0783577 0 1.9525375.8741817 1.9525375 1.9525375v18.2702198c0 1.0783539-.8741798 1.9525375-1.9525375 1.9525375h-32.7648468c-1.0783567.0000001-1.9525375-.8741836-1.9525375-1.9525375z" fill="#65b9ff"/><path d="m11.3704901 39.2349854h-1.75c-1.0800171 0-1.9500127-.8800049-1.9500127-1.9500122v-18.2699586c0-1.0800171.8699956-1.960022 1.9500127-1.960022h1.75c-1.0800171 0-1.9500122.8800049-1.9500122 1.960022v18.2699585c0 1.0800171.8699951 1.9500123 1.9500122 1.9500123z" fill="#3e7fff"/><path d="m40.7538757 39.2334328h-29.5v-32.000073c0-1.2619905 1.0230455-2.2850361 2.2850361-2.2850361h24.9299259c1.2619934 0 2.285038 1.0230455 2.285038 2.2850361z" fill="#deddff"/><path d="m15.2104559 4.9450073c-1.2699585 0-2.289978 1.0299683-2.289978 2.289978v32h-1.6699829v-32c0-1.2600098 1.0299683-2.289978 2.289978-2.289978z" fill="#c6c6f7"/><path d="m40.7504959 7.2349854v2.1699829h-29.5v-2.1699829c0-1.2600098 1.0299683-2.289978 2.289978-2.289978h24.9299927c1.2600098-.0000001 2.2800293 1.0299682 2.2800293 2.289978z" fill="#f879ca"/><path d="m15.2104559 4.9450073c-1.2699585 0-2.289978 1.0299683-2.289978 2.289978v2.1699829h-1.6699829v-2.1699828c0-1.2600098 1.0299683-2.289978 2.289978-2.289978h1.6699829z" fill="#f44aaf"/><path d="m14.6990767 15.4097242-.0084305-2.9814034c-.0013447-.4755106.3837557-.861702.8592682-.861702h3.7405424c.4745636 0 .859272.3847094.859272.859272v2.9814034c0 .4745636-.3847084.859273-.859272.859273h-3.7321119c-.4736138 0-.8579293-.3832302-.8592682-.856843z" fill="#46cc6b"/><path d="m14.6990767 22.2341995-.0084305-2.9814053c-.0013447-.4755096.3837557-.8617001.8592682-.8617001h3.7405424c.4745636 0 .859272.3847084.859272.859272v2.9814034c0 .4745617-.3847084.859272-.859272.859272h-3.7321119c-.4736138.0000001-.8579293-.3832301-.8592682-.856842z" fill="#46cc6b"/><path d="m14.6990767 29.0586739-.0084305-2.9814034c-.0013447-.4755116.3837557-.861702.8592682-.861702h3.7405424c.4745636 0 .859272.3847084.859272.859272v2.9814034c0 .4745617-.3847084.859272-.859272.859272h-3.7321119c-.4736138 0-.8579293-.3832302-.8592682-.856842z" fill="#46cc6b"/><path d="m14.6990767 35.8831482-.0084305-2.9814034c-.0013447-.4755096.3837557-.861702.8592682-.861702h3.7405424c.4745636 0 .859272.3847084.859272.859272v2.9814034c0 .4745636-.3847084.859272-.859272.859272h-3.7321119c-.4736138 0-.8579293-.3832283-.8592682-.856842z" fill="#46cc6b"/><g fill="#deddff"><path d="m16.6503448 15.0527411c.0830021.0837231.1963177.1299152.3139629.1299152.1176472 0 .2302399-.0461922.313242-.1299152l1.3763866-1.3763876c.1732216-.1732206.1732216-.4539833 0-.626483-.1732197-.1732216-.4532604-.1732216-.626482 0l-1.0631466 1.0624237-.2619953-.2627192c-.1732216-.1732216-.4539852-.1739426-.6272068-.0007219-.1732206.1732216-.1732206.4539843-.000721.6272049z"/><path d="m16.9643078 21.8726044c.1176472 0 .2302399-.0461922.313242-.1299171l1.3763866-1.3763866c.1732216-.1724987.1732216-.4539833 0-.626482-.1732197-.1732216-.4532604-.1732216-.626482 0l-1.0631466 1.0624218-.2619953-.2627182c-.1732216-.1732216-.4539852-.1739426-.6272068-.000721-.1732206.1732197-.1732206.4539833-.000721.6272049l.5759602.5766811c.083002.0837249.1963176.1299171.3139629.1299171z"/></g><g fill="#b5b5ea"><path d="m37.3171082 12.5275326c0 .3196096-.2635269.5832853-.5912323.5832853h-13.4076634c-.3275108 0-.5912342-.2636757-.5912342-.5832853 0-.3275585.2637234-.5912342.5912342-.5912342h13.4076633c.3277054 0 .5912324.2636757.5912324.5912342z"/><path d="m33.4407768 15.3109035c0 .3238153-.2622147.5859833-.5859833.5859833h-9.5378799c-.3239555 0-.5861702-.2621679-.5861702-.5782652 0-.3315334.2622147-.5937004.5861702-.5937004h9.5378799c.3237687 0 .5859833.262167.5859833.5859823z"/></g><g fill="#b5b5ea"><path d="m37.3171082 19.3520069c0 .3196106-.2635269.5832863-.5912323.5832863h-13.4076634c-.3275108 0-.5912342-.2636757-.5912342-.5832863 0-.3275585.2637234-.5912342.5912342-.5912342h13.4076633c.3277054 0 .5912324.2636757.5912324.5912342z"/><path d="m33.4407768 22.1353779c0 .3238163-.2622147.5859833-.5859833.5859833h-9.5378799c-.3239555 0-.5861702-.262167-.5861702-.5782642 0-.3315334.2622147-.5937023.5861702-.5937023h9.5378799c.3237687-.0000001.5859833.2621688.5859833.5859832z"/></g><g fill="#b5b5ea"><path d="m37.3171082 26.1764812c0 .3196106-.2635269.5832863-.5912323.5832863h-13.4076634c-.3275108 0-.5912342-.2636757-.5912342-.5832863 0-.3275585.2637234-.5912342.5912342-.5912342h13.4076633c.3277054 0 .5912324.2636757.5912324.5912342z"/><path d="m33.4407768 28.9598522c0 .3238163-.2622147.5859833-.5859833.5859833h-9.5378799c-.3239555 0-.5861702-.262167-.5861702-.5782642 0-.3315334.2622147-.5937004.5861702-.5937004h9.5378799c.3237687-.0000001.5859833.2621669.5859833.5859813z"/></g><g fill="#b5b5ea"><path d="m37.3171082 33.0009575c0 .3196106-.2635269.5832863-.5912323.5832863h-13.4076634c-.3275108 0-.5912342-.2636757-.5912342-.5832863 0-.3275604.2637234-.5912361.5912342-.5912361h13.4076633c.3277054 0 .5912324.2636757.5912324.5912361z"/><path d="m33.4407768 35.7843285c0 .3238144-.2622147.5859833-.5859833.5859833h-9.5378799c-.3239555 0-.5861702-.2621689-.5861702-.5782661 0-.3315353.2622147-.5937004.5861702-.5937004h9.5378799c.3237687-.0000001.5859833.262165.5859833.5859832z"/></g><g><path d="m37.4964027 7.677496h-10.9667968c-.2763672 0-.5-.2236385-.5-.5 0-.2763729.2236328-.5.5-.5h10.9667969c.2763672 0 .5.2236271.5.5-.0000001.2763614-.2236329.5-.5000001.5z" fill="#deddff"/></g><g fill="#deddff"><circle cx="14.88" cy="7.177" r=".875"/><circle cx="17.394" cy="7.177" r=".875"/><circle cx="19.908" cy="7.177" r=".875"/><path d="m31.4338036 44.6410065c0 .5099525-.4209251.9308739-.9308758.9308739h-9.0090618c-.5099506 0-.9227238-.4209213-.9227238-.9308739 0-.5099487.4127731-.9308243.9227238-.9308243h9.0090618c.5099506 0 .9308758.4208755.9308758.9308243z"/></g><g><path d="m41.150383 30.877203-4.9830093-2.4267407 6.4090576-13.2932262 4.9830055 2.4267406z" fill="#e83d62"/><path d="m45.0679321 16.3706093-2.491497-1.2133684-6.4090576 13.2932233 2.4915008 1.2133675z" fill="#ce2955"/><path d="m48.0543327 16.5723171-4.9830055-2.4267397-.4948959 1.0116587 4.9830055 2.4267406z" fill="#deddff"/><path d="m48.0543327 16.5723171-4.9830055-2.4267397.5127754-1.0163546c.6701241-1.3760185 2.3288498-1.9482574 3.7048683-1.2781324l.0000076.0000029c1.3760185.670125 1.9482574 2.3288517 1.2781296 3.7048702z" fill="#312e4b"/><path d="m41.1538811 30.877079-2.5156097 1.6098061-1.6459236 1.0542564c-.1459732.0896759-.3408737-.0052414-.354332-.1725578l-.1848946-1.9458733-.2837257-2.9730911z" fill="#ffaf93"/><path d="m38.6382713 32.4868851-1.6459236 1.0542564c-.1459732.0896759-.3408737-.0052414-.354332-.1725578l-.1907692-1.9487343z" fill="#312e4b"/></g></g></svg>